<svg viewBox="0 0 24 24" xmlns="http://www.w3.org/2000/svg"><g fill="currentColor" fill-rule="evenodd"><path d="M9.87 0.123C8.24 0.196 6.83 0.594 5.69 1.729C4.55 2.869 4.16 4.286 4.08 5.897C4.04 6.902 3.77 14.498 4.54 16.49C5.07 17.834 6.1 18.867 7.45 19.393C8.09 19.639 8.81 19.806 9.87 19.854C18.73 20.255 22.02 20.037 23.4 16.49C23.65 15.859 23.82 15.137 23.86 14.08C24.27 5.197 23.8 3.271 22.25 1.729C21.03 0.507 19.59 -0.325 9.87 0.123M9.95 18.068C8.98 18.024 8.45 17.862 8.1 17.726C7.22 17.383 6.56 16.722 6.21 15.843C5.62 14.329 5.82 7.14 5.87 5.977C5.92 4.837 6.16 3.796 6.96 2.992C7.95 2 9.24 1.513 17.99 1.908C19.14 1.96 20.18 2.19 20.99 2.992C21.98 3.985 22.47 5.28 22.07 13.999C22.03 14.968 21.87 15.493 21.73 15.843C20.83 18.151 18.76 18.471 9.95 18.068M18.09 4.69C18.09 5.347 18.62 5.881 19.28 5.881C19.94 5.881 20.48 5.347 20.48 4.69C20.48 4.032 19.94 3.498 19.28 3.498C18.62 3.498 18.09 4.032 18.09 4.69M8.86 9.988C8.86 12.803 11.15 15.085 13.97 15.085C16.79 15.085 19.08 12.803 19.08 9.988C19.08 7.173 16.79 4.892 13.97 4.892C11.15 4.892 8.86 7.173 8.86 9.988M10.66 9.988C10.66 8.162 12.14 6.68 13.97 6.68C15.8 6.68 17.29 8.162 17.29 9.988C17.29 11.815 15.8 13.297 13.97 13.297C12.14 13.297 10.66 11.815 10.66 9.988"/></g></svg>