<svg fill="currentColor" viewBox="0 0 513.164 513.164" xmlns="http://www.w3.org/2000/svg">
<g stroke="currentColor" stroke-width="14">
	<g>
		<path d="M427.636,329.309c-12.8-12.8-19.782-30.255-19.782-47.709v-83.782c0-70.982-50.036-131.491-116.364-146.618V34.909
			C291.491,15.127,276.364,0,256.582,0c-19.782,0-34.909,15.127-34.909,34.909V51.2c-66.327,15.127-116.364,75.636-116.364,146.618
			V281.6c0,18.618-6.982,34.909-19.782,47.709c-17.455,17.454-26.764,39.564-26.764,64v13.964c0,19.782,15.127,34.909,34.909,34.909
			h279.273c6.982,0,11.636-4.655,11.636-11.636s-4.655-11.636-11.636-11.636H93.673c-6.982,0-11.636-4.655-11.636-11.636v-13.964
			c0-18.618,6.982-34.909,19.782-47.709c17.455-17.455,26.764-39.564,26.764-64v-83.782c0-70.982,57.018-128,128-128
			s128,57.018,128,128V281.6c0,24.436,9.309,47.709,26.764,64c12.8,12.8,19.782,30.255,19.782,47.709v13.964
			c0,6.982-4.655,11.636-11.636,11.636s-11.636,4.655-11.636,11.636s4.655,11.636,11.636,11.636
			c19.782,0,34.909-15.127,34.909-34.909v-13.964C454.4,368.873,445.091,346.764,427.636,329.309z M268.218,46.545c0,0,0,0,0,1.164
			c-3.491-1.164-8.145-1.164-11.636-1.164s-8.145,0-11.636,1.164c0-0.582,0-0.873,0-0.873V34.909
			c0-6.982,4.655-11.636,11.636-11.636s11.636,4.655,11.636,11.636V46.545z"/>
	</g>
</g>
<g stroke="currentColor" stroke-width="14">
	<g>
		<path d="M312.436,468.945c-6.982-4.655-13.964-4.655-18.618,1.164c-10.473,12.8-23.273,18.618-37.236,18.618
			s-27.927-6.982-37.236-18.618c-4.655-4.655-11.636-5.818-16.291-1.164c-4.655,4.655-5.818,11.636-1.164,16.291
			c15.127,17.455,34.909,27.927,55.855,27.927s40.727-9.309,55.855-27.927C318.255,480.582,317.091,472.436,312.436,468.945z"/>
	</g>
</g>
<g stroke="currentColor" stroke-width="14">
	<g>
		<path d="M175.127,186.182c-6.982,0-11.636,4.655-11.636,11.636v93.091c0,6.982,4.655,11.636,11.636,11.636
			s11.636-4.655,11.636-11.636v-93.091C186.764,190.836,182.109,186.182,175.127,186.182z"/>
	</g>
</g>
</svg>
