<?xml version="1.0" encoding="iso-8859-1"?>
<!-- Uploaded to: SVG Repo, www.svgrepo.com, Generator: SVG Repo Mixer Tools -->
<svg fill="currentColor" stroke="currentColor" stroke-width="10" stroke-linejoin="round" version="1.1" id="Layer_1" xmlns="http://www.w3.org/2000/svg" xmlns:xlink="http://www.w3.org/1999/xlink"
	 viewBox="0 0 511.998 511.998" xml:space="preserve">
<g>
	<g>
		<path d="M433.909,341.032h-94.034c-4.329,0-7.837,3.508-7.837,7.837c0,4.329,3.508,7.837,7.837,7.837h94.034
			c4.329,0,7.837-3.508,7.837-7.837C441.745,344.539,438.236,341.032,433.909,341.032z"/>
	</g>
</g>
<g>
	<g>
		<path d="M433.909,367.005h-46.477c-4.329,0-7.837,3.509-7.837,7.837c0,4.329,3.508,7.837,7.837,7.837h46.477
			c4.329,0,7.837-3.508,7.837-7.837C441.745,370.513,438.236,367.005,433.909,367.005z"/>
	</g>
</g>
<g>
	<g>
		<path d="M386.351,213.335h-46.476c-4.329,0-7.837,3.508-7.837,7.837c0,4.329,3.508,7.837,7.837,7.837h46.476
			c4.329,0,7.837-3.508,7.837-7.837C394.188,216.842,390.68,213.335,386.351,213.335z"/>
	</g>
</g>
<g>
	<g>
		<path d="M386.351,243.636h-46.476c-4.329,0-7.837,3.508-7.837,7.837s3.508,7.837,7.837,7.837h46.476
			c4.329,0,7.837-3.508,7.837-7.837S390.68,243.636,386.351,243.636z"/>
	</g>
</g>
<g>
	<g>
		<path d="M386.351,273.936h-46.476c-4.329,0-7.837,3.508-7.837,7.837s3.508,7.837,7.837,7.837h46.476
			c4.329,0,7.837-3.508,7.837-7.837S390.68,273.936,386.351,273.936z"/>
	</g>
</g>
<g>
	<g>
		<path d="M433.909,213.335h-20.035c-4.329,0-7.837,3.508-7.837,7.837c0,4.329,3.508,7.837,7.837,7.837h20.035
			c4.329,0,7.837-3.508,7.837-7.837C441.745,216.842,438.236,213.335,433.909,213.335z"/>
	</g>
</g>
<g>
	<g>
		<path d="M433.909,243.636h-20.035c-4.329,0-7.837,3.508-7.837,7.837s3.508,7.837,7.837,7.837h20.035
			c4.329,0,7.837-3.508,7.837-7.837S438.236,243.636,433.909,243.636z"/>
	</g>
</g>
<g>
	<g>
		<path d="M433.909,273.936h-20.035c-4.329,0-7.837,3.508-7.837,7.837s3.508,7.837,7.837,7.837h20.035
			c4.329,0,7.837-3.508,7.837-7.837C441.745,277.443,438.236,273.936,433.909,273.936z"/>
	</g>
</g>
<g>
	<g>
		<path d="M433.909,304.239h-20.035c-4.329,0-7.837,3.508-7.837,7.837s3.508,7.837,7.837,7.837h20.035
			c4.329,0,7.837-3.508,7.837-7.837S438.236,304.239,433.909,304.239z"/>
	</g>
</g>
<g>
	<g>
		<path d="M387.43,157.775c-17.683,0-31.535,9.695-31.535,22.071c0,12.378,13.852,22.072,31.535,22.072
			c17.682,0,31.533-9.695,31.533-22.072C418.963,167.47,405.112,157.775,387.43,157.775z M387.43,186.246
			c-9.869,0-15.862-4.445-15.862-6.399s5.991-6.398,15.862-6.398c9.867,0,15.859,4.444,15.859,6.398S397.298,186.246,387.43,186.246
			z"/>
	</g>
</g>
<g>
	<g>
		<path d="M493.354,29.56H281.507c-10.282,0-18.646,8.371-18.646,18.658v14.89h-13.723v-14.89c0-10.288-8.364-18.658-18.646-18.658
			H18.646C8.364,29.56,0,37.931,0,48.218v415.561c0,10.288,8.364,18.659,18.646,18.659h211.847c10.282,0,18.646-8.371,18.646-18.659
			v-14.89h13.723v14.89c0,10.288,8.364,18.659,18.646,18.659h146.9c4.329,0,7.837-3.508,7.837-7.837
			c0-4.329-3.508-7.837-7.837-7.837H281.507c-1.638,0-2.973-1.339-2.973-2.985V48.218c0-1.646,1.333-2.984,2.973-2.984h48.253
			v60.966h-10.424c-7.302,0-13.242,5.941-13.242,13.246v292.193c0,7.303,5.94,13.245,13.242,13.245h136.188
			c7.302,0,13.242-5.942,13.242-13.245V172.406c0-4.329-3.508-7.837-7.837-7.837c-4.329,0-7.837,3.508-7.837,7.837v236.803H321.768
			V121.873h7.991v9.456c0,4.329,3.508,7.837,7.837,7.837h7.393c1.948,7.771,8.966,13.55,17.328,13.55h50.226
			c8.361,0,15.38-5.779,17.328-13.55h7.393c4.329,0,7.837-3.508,7.837-7.837v-9.456h7.991v20.233c0,4.329,3.508,7.837,7.837,7.837
			c4.329,0,7.837-3.508,7.837-7.837v-22.662c0-7.304-5.939-13.246-13.242-13.246h-10.424V45.234h48.253
			c1.638,0,2.973,1.339,2.973,2.984v415.561c0,1.646-1.333,2.985-2.973,2.985h-25.241c-4.329,0-7.837,3.508-7.837,7.837
			c0,4.329,3.508,7.837,7.837,7.837h25.241c10.282,0,18.646-8.371,18.646-18.659V48.218C512,37.931,503.636,29.56,493.354,29.56z
			 M15.673,105.144h35.398c4.618,0,8.376,3.766,8.376,8.395v41.123c0,4.63-3.757,8.397-8.376,8.397H15.673V105.144z M233.466,463.78
			c0,1.646-1.333,2.985-2.973,2.985h-37.891l-19.395-73.788c-1.099-4.186-5.382-6.684-9.571-5.588
			c-4.186,1.101-6.687,5.385-5.587,9.571l18.348,69.804H18.646c-1.638,0-2.973-1.339-2.973-2.985V273.577h103.492
			c3.8,0,7.131,2.573,8.1,6.256l21.721,82.642c2.559,9.737,17.742,5.843,15.158-3.984l-13.398-50.977h44.332
			c11.082,0,20.098-9.016,20.098-20.1v-82.172c0-11.083-9.015-20.1-20.098-20.1H54.063c-11.082,0-20.099,9.016-20.099,20.1v52.661
			H15.673v-79.171h35.398c13.261,0,24.049-10.798,24.049-24.07v-41.123c0-13.271-10.789-24.068-24.049-24.068H15.673V48.218
			c0-1.646,1.333-2.984,2.973-2.984h211.847c1.638,0,2.973,1.339,2.973,2.984V463.78z M199.502,229.023v5.176H49.638v-5.176H199.502
			z M49.638,213.349v-8.107c0-2.441,1.985-4.426,4.425-4.426h141.014c2.44,0,4.424,1.985,4.424,4.426v8.107H49.638z
			 M199.502,249.872v0.001v37.541c0,2.441-1.984,4.426-4.424,4.426h-48.451l-4.203-15.991
			c-2.777-10.566-12.341-17.946-23.258-17.946H49.639v-8.031H199.502z M262.861,433.217h-13.723V78.781h13.723V433.217z
			 M414.755,134.819c0,1.226-0.992,2.222-2.21,2.222h-50.226c-1.218,0-2.21-0.997-2.21-2.222v-10.055
			c0-1.226,0.992-2.223,2.21-2.223h50.226c1.218,0,2.21,0.997,2.21,2.223V134.819z M429.429,118.918h-0.001
			c-2.429-7.001-9.071-12.049-16.883-12.049h-50.226c-7.813,0-14.454,5.048-16.883,12.049V45.234h83.994V118.918z"/>
	</g>
</g>
</svg>