<?xml version="1.0" encoding="iso-8859-1"?>
<!-- Uploaded to: SVG Repo, www.svgrepo.com, Generator: SVG Repo Mixer Tools -->
<svg fill="currentColor" version="1.1" id="Layer_1" xmlns="http://www.w3.org/2000/svg" xmlns:xlink="http://www.w3.org/1999/xlink" 
	 viewBox="0 0 512 512" xml:space="preserve">
<g>
	<g>
		<path d="M10.419,487.386h-0.135C4.604,487.386,0,491.99,0,497.669s4.604,10.284,10.284,10.284h0.135
			c5.68,0,10.284-4.604,10.284-10.284S16.098,487.386,10.419,487.386z"/>
	</g>
</g>
<g>
	<g>
		<path d="M493.624,487.386h-0.135c-5.68,0-10.284,4.604-10.284,10.284s4.604,10.284,10.284,10.284h0.135
			c5.68,0,10.284-4.604,10.284-10.284S499.304,487.386,493.624,487.386z"/>
	</g>
</g>
<g>
	<g>
		<path d="M281.912,443.165h-0.135c-5.68,0-10.284,4.604-10.284,10.284s4.604,10.284,10.284,10.284h0.135
			c5.68,0,10.284-4.604,10.284-10.284S287.591,443.165,281.912,443.165z"/>
	</g>
</g>
<g>
	<g>
		<path d="M353.764,443.165h-38.582c-5.68,0-10.284,4.604-10.284,10.284s4.604,10.284,10.284,10.284h38.582
			c5.68,0,10.284-4.604,10.284-10.284S359.444,443.165,353.764,443.165z"/>
	</g>
</g>
<g>
	<g>
		<path d="M451.325,285.151c-33.456,0-60.675,27.218-60.675,60.675s27.218,60.675,60.675,60.675
			c33.456,0,60.675-27.218,60.675-60.675S484.782,285.151,451.325,285.151z M451.325,385.933c-22.115,0-40.107-17.992-40.107-40.107
			c0-22.115,17.992-40.107,40.107-40.107s40.107,17.992,40.107,40.107C491.432,367.941,473.441,385.933,451.325,385.933z"/>
	</g>
</g>
<g>
	<g>
		<path d="M451.325,306.819c-5.68,0-10.284,4.604-10.284,10.284v18.439H435.2c-5.68,0-10.284,4.604-10.284,10.284
			s4.604,10.284,10.284,10.284h16.125c5.68,0,10.284-4.604,10.284-10.284v-28.723C461.609,311.423,457.005,306.819,451.325,306.819z
			"/>
	</g>
</g>
<g>
	<g>
		<path d="M69.93,233.458v-25.157c2.54,2.51,4.114,5.939,4.114,9.719c0,5.68,4.604,10.284,10.284,10.284s10.284-4.604,10.284-10.284
			c0-15.485-10.405-28.617-24.681-32.958v-8.813c0-5.68-4.604-10.284-10.284-10.284c-5.68,0-10.284,4.604-10.284,10.284v8.813
			c-14.276,4.341-24.681,17.472-24.681,32.958c0,15.485,10.405,28.617,24.681,32.958v25.157c-2.54-2.51-4.114-5.939-4.114-9.719
			c0-5.68-4.604-10.284-10.284-10.284s-10.284,4.604-10.284,10.284c0,15.485,10.405,28.617,24.681,32.958v6.452
			c0,5.68,4.604,10.284,10.284,10.284c5.68,0,10.284-4.604,10.284-10.284v-6.452c14.276-4.341,24.681-17.472,24.681-32.958
			C94.611,250.932,84.206,237.8,69.93,233.458z M49.362,227.74c-2.54-2.51-4.114-5.939-4.114-9.719c0-3.78,1.573-7.209,4.114-9.719
			V227.74z M69.93,276.135v-19.438c2.54,2.51,4.114,5.939,4.114,9.719S72.47,273.625,69.93,276.135z"/>
	</g>
</g>
<g>
	<g>
		<path d="M460.219,487.386h-57.054v-69.534c0-20.045-12.098-39.086-29.419-46.303l-8.655-3.606
			c13.325-20.715,20.552-44.991,20.552-69.639V161.902c0-30.037-10.544-59.048-29.771-82.212l4.007-38.712
			c0.424-4.091-1.631-8.04-5.223-10.042c-31.496-17.55-67.169-26.849-103.161-26.89c-0.08,0-0.156,0-0.235,0
			c-35.48,0-70.727,9.025-101.938,26.104c-3.625,1.984-5.711,5.944-5.295,10.055l3.989,39.51
			c-19.214,23.159-29.751,52.162-29.751,82.187v136.402c0,24.648,7.227,48.924,20.552,69.639l-8.655,3.607
			c-3.137,1.307-6.098,3.006-8.85,5.024v-9.507c0-5.68-4.604-10.284-10.284-10.284H10.284C4.604,356.782,0,361.386,0,367.066v63.76
			c0,5.68,4.604,10.284,10.284,10.284h32.908v46.302c-5.447,0.261-9.787,4.747-9.787,10.259c0,5.68,4.604,10.284,10.284,10.284
			h416.53c5.68,0,10.284-4.604,10.284-10.284S465.899,487.386,460.219,487.386z M20.568,420.541v-43.192h80.175v18.511H65.989
			c-5.68,0-10.284,4.604-10.284,10.284c0,5.68,4.604,10.284,10.284,10.284h34.753v4.114H20.568z M100.742,487.386H63.76v-46.277
			h36.983C100.742,441.108,100.742,487.386,100.742,487.386z M251.259,24.613c0.07,0,0.143,0,0.214,0
			c30.264,0.035,60.281,7.318,87.238,21.119l-2.834,27.39H168.021l-2.834-28.071C191.86,31.66,221.467,24.613,251.259,24.613z
			 M300.638,93.69c-10.222,4.678-26.623,8.874-48.684,8.874c-22.061,0-38.462-4.196-48.684-8.874H300.638z M138.832,161.902
			c0-24.852,8.599-48.885,24.311-68.214h9.491c9.21,19.372,44.45,29.442,79.32,29.442c34.87,0,70.11-10.07,79.32-29.442h9.492
			c15.713,19.331,24.31,43.36,24.31,68.214v136.402c0,21.932-6.837,43.511-19.349,61.57l-38.167-15.903
			c-2.353-0.98-3.874-3.261-3.874-5.811v-16.014l26.881-15.413c0.187-0.107,0.371-0.221,0.552-0.34
			c13.428-8.868,22.256-24.622,23.632-42.161c0.025-0.286,0.039-0.576,0.04-0.868c0-0.001,0-0.003,0-0.004c0-0.002,0-0.005,0-0.007
			c0-0.003,0-0.006,0-0.009c0-0.001,0-0.004,0-0.005c0-0.005,0-0.009,0-0.014V170.09c0-5.68-4.604-10.284-10.284-10.284H159.399
			c-5.68,0-10.284,4.604-10.284,10.284v93.233c0,0.261,0.01,0.523,0.03,0.784c1.35,17.661,10.126,33.469,23.477,42.286
			c0.184,0.121,0.372,0.237,0.564,0.347l27.035,15.456v15.965c0,2.549-1.521,4.83-3.875,5.811l-38.166,15.903
			c-12.511-18.059-19.348-39.638-19.348-61.57V161.902z M251.954,381.895l-33.265-33.334c1.353-3.229,2.1-6.746,2.1-10.4v-4.207
			l7.814,4.467c7.218,4.688,15.285,7.032,23.353,7.032c8.07,0,16.138-2.346,23.359-7.036l7.806-4.475v4.22
			c0,3.654,0.747,7.172,2.1,10.4L251.954,381.895z M277.135,385.779l-4.639,15.828l-5.765-5.401L277.135,385.779z M237.177,396.206
			l-5.765,5.401l-4.639-15.828L237.177,396.206z M264.819,320.725c-0.188,0.108-0.371,0.221-0.552,0.34
			c-7.709,5.092-16.915,5.092-24.624,0c-0.184-0.121-0.372-0.238-0.564-0.347l-55.374-31.657
			c-7.859-5.321-13.075-15.051-14.021-26.152v-82.535h164.541v82.534c-0.934,10.875-6.341,20.841-14.192,26.157L264.819,320.725z
			 M382.598,487.386L382.598,487.386H121.31v-69.534c0-11.591,7.206-23.335,16.762-27.317l61.189-25.496l17.114,58.394
			c2.111,7.206,11.402,9.765,16.899,4.612l18.68-17.499l18.678,17.5c5.498,5.152,14.788,2.594,16.899-4.612l17.114-58.394
			l61.19,25.495c9.556,3.982,16.762,15.725,16.762,27.317V487.386z"/>
	</g>
</g>
<g>
	<g>
		<path d="M289.408,212.807c-6.339,0-11.495,5.156-11.495,11.495c0,6.338,5.156,11.494,11.495,11.494
			c6.339,0,11.495-5.156,11.495-11.494C300.903,217.964,295.747,212.807,289.408,212.807z"/>
	</g>
</g>
<g>
	<g>
		<path d="M214.399,212.807c-6.339,0-11.495,5.156-11.495,11.495c0,6.338,5.156,11.494,11.495,11.494
			c6.339,0,11.495-5.156,11.495-11.494C225.895,217.964,220.738,212.807,214.399,212.807z"/>
	</g>
</g>
<g>
	<g>
		<path d="M261.996,261.261h-20.099c-5.68,0-10.284,4.604-10.284,10.284c0,11.211,9.122,20.333,20.333,20.333
			s20.333-9.122,20.333-20.333C272.28,265.865,267.676,261.261,261.996,261.261z"/>
	</g>
</g>
</svg>