<?xml version="1.0" encoding="iso-8859-1"?>
<svg height="800px" width="800px" version="1.1" xmlns="http://www.w3.org/2000/svg"
	 viewBox="0 0 409.794 409.794" xml:space="preserve">
<g>
	<path style="fill:currentColor;" d="M89.788,63.622L32.856,165.774c-2.195,3.918-0.788,8.876,3.138,11.055
		c1.252,0.699,2.609,1.032,3.95,1.032c2.853,0,5.617-1.496,7.104-4.17l54.616-97.982h216.651l57.924,98.144
		c2.276,3.869,7.267,5.145,11.128,2.878c3.869-2.284,5.154-7.267,2.878-11.128L329.963,63.46c-1.463-2.479-4.129-3.999-6.999-3.999
		H96.884C93.942,59.452,91.219,61.054,89.788,63.622z"/>
	<path style="fill:currentColor;" d="M0,211.587v130.618c0,4.495,3.633,8.129,8.129,8.129h393.537c4.495,0,8.129-3.633,8.129-8.129
		V204.897c0-4.495-3.633-8.129-8.129-8.129H301.196c-4.495,0-8.129,3.633-8.129,8.129c0,4.495,3.633,8.129,8.129,8.129h92.341
		v121.059H16.257V219.715h83.139c4.495,0,8.129-3.633,8.129-8.129c0-4.495-3.633-8.129-8.129-8.129H8.129
		C3.633,203.458,0,207.1,0,211.587z"/>
	<path style="fill:currentColor;" d="M258.277,202.41l-12.42,38.741h-76.254l-21.151-40.05c-2.089-3.967-7.007-5.511-10.982-3.39
		c-3.967,2.097-5.495,7.007-3.39,10.982l23.443,44.382c1.406,2.666,4.17,4.333,7.186,4.333h87.081c3.536,0,6.657-2.276,7.738-5.641
		l14.233-44.382c1.374-4.276-0.984-8.852-5.251-10.226C264.219,195.793,259.643,198.15,258.277,202.41z"/>
</g>
</svg>
