<?xml version="1.0" encoding="iso-8859-1"?>
<!-- Uploaded to: SVG Repo, www.svgrepo.com, Generator: SVG Repo Mixer Tools -->
<svg fill="currentColor" height="800px" width="800px" version="1.1" id="Layer_1" xmlns="http://www.w3.org/2000/svg" xmlns:xlink="http://www.w3.org/1999/xlink" 
	 viewBox="0 0 480 480" xml:space="preserve">
<g>
	<g>
		<g>
			<path d="M359.752,225.688c-4.416,0-8,3.584-8,8s3.584,8,8,8c16.04,0,29.088,13.032,29.088,29.048
				c0,16.04-13.048,29.088-29.088,29.088c-4.416,0-8,3.584-8,8c0,4.416,3.584,8,8,8c24.864,0,45.088-20.224,45.088-45.088
				C404.84,245.896,384.616,225.688,359.752,225.688z"/>
			<path d="M456,328h-30c13.336-15.392,21.52-35.36,21.52-57.28c0-48.344-39.368-87.68-87.76-87.68
				c-48.392,0-87.76,39.328-87.76,87.68c0,21.912,8.168,41.888,21.488,57.28H264H48v-31.36c0-101.304,82.832-183.848,184.632-184
				c51.824,0.04,101.44,22.168,136.128,60.704c2.96,3.28,8.008,3.552,11.296,0.592c3.288-2.952,3.552-8.008,0.592-11.296
				c-28.8-32-67.072-53.544-108.656-61.984V86.96c0-8.488-3.336-16.488-9.384-22.544c-6.048-6.048-14.08-9.376-22.608-9.376
				c-17.648,0-32,14.32-32,31.92v11.272c-99.04,12.288-176,96.6-176,198.408V328h-8c-13.232,0-24,10.768-24,24v32
				c0,4.416,3.584,8,8,8h296v64c0,2.952,1.624,5.664,4.224,7.056c2.592,1.392,5.744,1.232,8.208-0.4L360,433.616l43.56,29.04
				c1.344,0.896,2.888,1.344,4.44,1.344c1.296,0,2.592-0.312,3.776-0.944c2.6-1.392,4.224-4.104,4.224-7.056v-64h56
				c4.416,0,8-3.584,8-8v-32C480,338.768,469.232,328,456,328z M224,86.96c0-8.784,7.176-15.92,16-15.92
				c4.256,0,8.272,1.664,11.304,4.696C254.336,78.76,256,82.752,256,86.96V96h-32V86.96z M304,376H16v-24c0-4.408,3.592-8,8-8h16
				h224h40V376z M400,384v57.048l-35.56-23.704c-2.688-1.792-6.184-1.792-8.872,0L320,441.048V384v-35.144
				c9.712,4.96,20.432,8.192,31.8,9.224l0.2,25.976c0.032,4.4,3.608,7.944,8,7.944c0.016,0,0.04,0,0.056,0
				c4.416-0.032,7.976-3.264,7.944-7.68l-0.2-26.24c11.52-1.056,22.384-4.36,32.2-9.448V384z M359.76,342.48
				c-39.568,0-71.76-32.192-71.76-71.76c0-39.528,32.192-71.68,71.76-71.68s71.76,32.16,71.76,71.68
				C431.52,310.288,399.328,342.48,359.76,342.48z M464,376h-48v-32h40c4.408,0,8,3.592,8,8V376z"/>
			<path d="M136,176c-4.416,0-8,3.584-8,8s3.584,8,8,8h40c4.416,0,8-3.584,8-8s-3.584-8-8-8H136z"/>
			<path d="M206.4,176.16c-0.48,0.08-0.96,0.24-1.44,0.48c-0.48,0.16-0.96,0.4-1.36,0.72c-0.48,0.32-0.88,0.64-1.28,0.96
				c-1.44,1.52-2.32,3.6-2.32,5.68c0,2.16,0.88,4.16,2.32,5.68c1.52,1.44,3.6,2.32,5.68,2.32c1.04,0,2.08-0.24,3.04-0.64
				c0.96-0.4,1.84-0.96,2.64-1.68c0.32-0.4,0.72-0.8,0.96-1.2c0.32-0.48,0.56-0.96,0.72-1.44c0.24-0.48,0.4-0.96,0.48-1.44
				c0.08-0.56,0.16-1.04,0.16-1.6c0-2.08-0.88-4.16-2.32-5.68c-0.8-0.72-1.68-1.28-2.64-1.68C209.6,176,208,175.84,206.4,176.16z"/>
			<path d="M64,51.2c4.416,0,8-3.584,8-8V24c0-4.416-3.584-8-8-8s-8,3.584-8,8v19.2C56,47.616,59.584,51.2,64,51.2z"/>
			<path d="M64,128c4.416,0,8-3.584,8-8v-19.2c0-4.416-3.584-8-8-8s-8,3.584-8,8V120C56,124.416,59.584,128,64,128z"/>
			<path d="M84.8,72c0,4.416,3.584,8,8,8H112c4.416,0,8-3.584,8-8s-3.584-8-8-8H92.8C88.384,64,84.8,67.584,84.8,72z"/>
			<path d="M16,80h19.2c4.416,0,8-3.584,8-8s-3.584-8-8-8H16c-4.416,0-8,3.584-8,8S11.584,80,16,80z"/>
			<path d="M78.712,86.712c-3.128,3.128-3.128,8.184,0,11.312L92.288,111.6c1.56,1.56,3.608,2.344,5.656,2.344
				c2.048,0,4.096-0.784,5.656-2.344c3.128-3.128,3.128-8.184,0-11.312L90.024,86.712C86.896,83.584,81.84,83.584,78.712,86.712z"/>
			<path d="M37.984,57.296c1.56,1.56,3.608,2.344,5.656,2.344c2.048,0,4.096-0.784,5.656-2.344c3.128-3.128,3.128-8.184,0-11.312
				L35.712,32.4c-3.12-3.12-8.184-3.12-11.312,0c-3.128,3.12-3.128,8.184,0,11.312L37.984,57.296z"/>
			<path d="M37.984,86.704L24.4,100.288c-3.128,3.128-3.128,8.184,0,11.312c1.56,1.56,3.608,2.344,5.656,2.344
				c2.048,0,4.096-0.784,5.656-2.344l13.576-13.576c3.128-3.128,3.128-8.184,0-11.312C46.16,83.584,41.104,83.584,37.984,86.704z"/>
			<path d="M84.36,59.64c2.048,0,4.096-0.784,5.656-2.344l13.576-13.576c3.128-3.128,3.128-8.184,0-11.312
				c-3.128-3.128-8.184-3.128-11.312,0L78.704,45.984c-3.128,3.128-3.128,8.184,0,11.312C80.272,58.856,82.32,59.64,84.36,59.64z"/>
		</g>
	</g>
</g>
</svg>